# AST/ASF file generated using VICON BodyLanguage
# -----------------------------------------------
:version 1.10
:name VICON
:units
  mass 1.0
  length 0.45
  angle deg
:documentation
   .ast/.asf automatically generated from VICON data using
   VICON BodyBuilder and BodyLanguage model FoxedUp or BRILLIANT.MOD
:root
   order TX TY TZ RX RY RZ
   axis XYZ
   position 0 0 0  
   orientation 0 0 0 
:bonedata
  begin
     id 1 
     name lhipjoint
     direction 0.54267 -0.795011 0.271047 
     length 2.39899 
     axis 0 0 0  XYZ
  end
  begin
     id 2 
     name lfemur
     direction 0.34202 -0.939693 0  
     length 7.49701  
     axis 0 0 20  XYZ
    dof rx ry rz
    limits (-160.0 20.0)
           (-70.0 70.0)
           (-60.0 70.0)
  end
  begin
     id 3 
     name ltibia
     direction 0.34202 -0.939693 0   
     length 8.1668   
     axis 0 0 20   XYZ
    dof rx
    limits (-10.0 170.0)
  end
  begin
     id 4 
     name lfoot
     direction 0.0736283 -0.202292 0.976554   
     length 2.13544   
     axis -90 7.62852e-016 20   XYZ
    dof rx rz
    limits (-45.0 90.0)
           (-70.0 20.0)
  end
  begin
     id 5 
     name ltoes
     direction 1.53557e-011 -4.22024e-011 1   
     length 1.07411   
     axis -90 7.62852e-016 20   XYZ
    dof rx
    limits (-90.0 20.0)
  end
  begin
     id 6 
     name rhipjoint
     direction -0.538061 -0.797813 0.272002   
     length 2.39057  
     axis 0 0 0  XYZ 
  end
  begin
     id 7 
     name rfemur
     direction -0.34202 -0.939693 0   
     length 7.50152   
     axis 0 0 -20   XYZ
    dof rx ry rz
    limits (-160.0 20.0)
           (-70.0 70.0)
           (-70.0 60.0)
  end
  begin
     id 8 
     name rtibia
     direction -0.34202 -0.939693 0   
     length 8.05793   
     axis 0 0 -20   XYZ
    dof rx
    limits (-10.0 170.0)
 end
 begin
     id 9 
     name rfoot
     direction -0.0765195 -0.210236 0.974652   
     length 2.28698  
     axis -90 -7.62852e-016 -20   XYZ
    dof rx rz
    limits (-45.0 90.0)
           (-20.0 70.0)
  end
  begin
     id 10 
     name rtoes
     direction -1.53542e-011 -4.21847e-011 1   
     length 1.14762   
     axis -90 -7.62852e-016 -20   XYZ
    dof rx
    limits (-90.0 20.0)
  end
  begin
     id 11 
     name lowerback
     direction -0.0217239 0.996592 -0.0795765   
     length 2.08176   
     axis 0 0 0   XYZ
    dof rx ry rz
    limits (-20.0 45.0)
           (-30.0 30.0)
           (-30.0 30.0)
  end
  begin
     id 12 
     name upperback
     direction -0.00563773 0.999651 -0.0258155   
     length 2.08898   
     axis 0 0 0   XYZ
    dof rx ry rz
    limits (-20.0 45.0)
           (-30.0 30.0)
           (-30.0 30.0)
  end
  begin
     id 13 
     name thorax
     direction 0.0032706 0.999923 0.0119599   
     length 2.0968   
     axis 0 0 0   XYZ
    dof rx ry rz
    limits (-20.0 45.0)
           (-30.0 30.0)
           (-30.0 30.0)
  end
  begin
     id 14 
     name lowerneck
     direction -0.0285886 0.99568 0.0883427   
     length 1.81272   
     axis 0 0 0   XYZ
    dof rx ry rz
    limits (-20.0 45.0)
           (-30.0 30.0)
           (-30.0 30.0)
  end
  begin
     id 15 
     name upperneck
     direction 0.0807535 0.97985 -0.18268   
     length 1.82518   
     axis 0 0 0   XYZ
    dof rx ry rz
    limits (-20.0 45.0)
           (-30.0 30.0)
           (-30.0 30.0)
  end
  begin
     id 16
     name head
     direction 0.0236605 0.997053 -0.0729767  
     length 1.84443  
     axis 0 0 0   XYZ
    dof rx ry rz
    limits (-20.0 45.0)
           (-30.0 30.0)
           (-30.0 30.0)
  end
  begin
     id 17 
     name lclavicle
     direction 0.918986 0.39378 -0.0200683  
     length 3.27822  
     axis 0 0 0   XYZ
    dof ry rz
    limits (-20.0 10.0)
           (0.0 20.0)
  end
  begin
     id 18 
     name lhumerus
     direction 1 -4.4897e-011 2.09544e-027   
     length 5.5568   
     axis 180 -30 -90   XYZ
    dof rx ry rz
    limits (-60.0 90.0)
           (-90.0 90.0)
           (-90.0 90.0)
  end
  begin
     id 19
     name lradius
     direction 1 -4.48957e-011 -1.27696e-026   
     length 3.63979   
     axis 180 -30 -90   XYZ
    dof rx
    limits (-10.0 170.0)
  end
  begin
     id 20
     name lwrist
     direction 1 -4.49001e-011 -1.49001e-026   
     length 1.8199   
     axis 9.0955e-015 90 90   XYZ
    dof ry
    limits (-180.0 0.0)
 end
  begin
     id 21 
     name lhand
     direction 1 -4.48709e-011 -2.9758e-026   
     length 0.569419   
     axis 1.90115e-014 90 90   XYZ
    dof rx rz
    limits (-90.0 90.0)
           (-45.0 45.0)
  end
  begin
     id 22 
     name lfingers
     direction 1 -4.49175e-011 -5.96505e-026   
     length 0.45908   
     axis 3.80223e-014 90 90   XYZ
    dof rx
    limits (0.0 90.0)
  end
  begin
     id 23
     name lthumb
     direction 0.707107 -6.34864e-011 0.707107   
     length 0.65915   
     axis -90 45 -3.84942e-014   XYZ
    dof rx rz
    limits (-45.0 45.0)
           (-45.0 45.0)
  end
  begin
     id 24 
     name rclavicle
     direction -0.911913 0.396426 -0.106115   
     length 3.46301  
     axis 0 0 0   XYZ 
    dof ry rz
    limits (-10.0 20.0)
           (-20.0 0.0)
  end
  begin
     id 25 
     name rhumerus
     direction -1 -4.48965e-011 7.78516e-028  
     length 5.34339   
     axis 180 30 90   XYZ
    dof rx ry rz
    limits (-90.0 60.0)
           (-90.0 90.0)
           (-90.0 90.0)
  end
  begin
     id 26 
     name rradius
     direction -1 -4.48948e-011 -5.79823e-027   
     length 3.65101   
     axis 180 30 90   XYZ
    dof rx
    limits (-10.0 170.0)
  end
  begin
     id 27 
     name rwrist
     direction -1 -4.48995e-011 -1.48996e-026   
     length 1.8255   
     axis 9.0955e-015 -90 -90   XYZ
    dof ry
    limits (-180.0 0.0)
  end
  begin
     id 28
     name rhand
     direction -1 -4.48957e-011 -2.97937e-026   
     length 0.694249   
     axis 1.90115e-014 -90 -90   XYZ
    dof rx rz
    limits (-90.0 90.0)
           (-45.0 45.0)
  end
  begin
     id 29
     name rfingers
     direction -1 -4.4898e-011 -5.95943e-026   
     length 0.559721   
     axis 3.80223e-014 -90 -90   XYZ
    dof rx
    limits (0.0 90.0)
  end
  begin
     id 30
     name rthumb
     direction -0.707107 -6.34969e-011 0.707107   
     length 0.803651   
     axis -90 -45 3.84942e-014   XYZ
    dof rx rz
    limits (-45.0 45.0)
           (-45.0 45.0)
  end
:hierarchy
  begin
    root lhipjoint rhipjoint lowerback
    lhipjoint lfemur
    lfemur ltibia
    ltibia lfoot
    lfoot ltoes
    rhipjoint rfemur
    rfemur rtibia
    rtibia rfoot
    rfoot rtoes
    lowerback upperback
    upperback thorax
    thorax lowerneck lclavicle rclavicle
    lowerneck upperneck
    upperneck head
    lclavicle lhumerus
    lhumerus lradius
    lradius lwrist
    lwrist lhand lthumb
    lhand lfingers
    rclavicle rhumerus
    rhumerus rradius
    rradius rwrist
    rwrist rhand rthumb
    rhand rfingers
  end

#!OML:ASF H:\Terrain\Walking\May29\JustinRory\rory.ASF
:FULLY-SPECIFIED
:DEGREES
178
root -11.3602 17.356 -6.91546 2.66533 8.48189 -4.92979
lowerback 5.00971 -2.87042 -4.11646
upperback 2.56506 -3.98615 3.26718
thorax 0.363847 -2.07196 5.86613
lowerneck -11.8702 5.19014 4.0983
upperneck 17.1926 8.21806 -9.74068
head 7.8472 3.30487 -3.02215
rclavicle -4.91992e-014 9.93923e-016
rhumerus -42.5305 -15.0498 -63.106
rradius 36.4098
rwrist 1.12262
rhand -17.7328 36.4329
rfingers 7.12502
rthumb 8.52822 6.62515
lclavicle -4.91992e-014 9.93923e-016
lhumerus -19.846 5.41588 85.8825
lradius 25.6858
lwrist -0.145866
lhand -30.4853 22.0242
lfingers 7.12502
lthumb -3.78608 51.9703
rfemur -33.4646 -8.58453 25.6216
rtibia 49.1536
rfoot 6.19315 33.6662
rtoes 34.8982
lfemur -4.74056 18.4522 -34.0795
ltibia 40.8722
lfoot 3.05186 -0.100686
ltoes 3.09791
179
root -11.5041 17.3323 -6.9945 3.1057 9.44447 -4.93622
lowerback 5.18193 -3.01931 -4.55638
upperback 2.45046 -4.2093 3.2653
thorax 0.212611 -2.18175 6.13559
lowerneck -11.9463 5.21306 4.47756
upperneck 16.8264 8.10602 -9.57649
head 7.73894 3.299 -3.0395
rclavicle -4.88016e-014 -2.00773e-014
rhumerus -43.0968 -15.8118 -62.9516
rradius 36.178
rwrist 1.89939
rhand -16.8947 35.18
rfingers 7.12502
rthumb 9.33692 5.40678
lclavicle -4.88016e-014 -2.00773e-014
lhumerus -19.618 8.68094 85.3621
lradius 26.0219
lwrist -3.1932
lhand -30.8043 21.3817
lfingers 7.12502
lthumb -4.09414 51.3221
rfemur -34.9042 -10.1559 26.6049
rtibia 50.112
rfoot 4.75534 33.2395
rtoes 31.2752
lfemur -4.24435 16.9715 -34.5954
ltibia 39.5336
lfoot -0.23749 0.647126
ltoes -4.79327
180
root -11.6491 17.311 -7.08209 3.55306 10.4518 -4.88088
lowerback 5.35586 -3.16203 -5.12593
upperback 2.46459 -4.43231 3.34002
thorax 0.214483 -2.3014 6.55551
lowerneck -12.1321 5.0972 4.54223
upperneck 16.2002 7.82693 -9.35159
head 7.53809 3.20148 -3.00062
rclavicle -6.41081e-015 -1.59028e-015
rhumerus -43.268 -16.7273 -62.7357
rradius 35.5702
rwrist 2.6087
rhand -16.4687 35.2565
rfingers 7.12502
rthumb 9.74793 5.50207
lclavicle -6.41081e-015 -1.59028e-015
lhumerus -18.778 8.29398 85.5139
lradius 25.6623
lwrist -2.63086
lhand -31.224 20.6035
lfingers 7.12502
lthumb -4.49947 50.5357
rfemur -36.6685 -11.7718 27.5494
rtibia 51.3726
rfoot 4.65177 32.291
rtoes 30.2297
lfemur -4.06765 15.1173 -35.1452
ltibia 38.7979
lfoot -3.58917 2.25934
ltoes -11.5177
181
root -11.7991 17.2709 -7.17264 3.88834 11.2931 -5.01899
lowerback 5.67423 -3.31195 -5.55075
upperback 2.49101 -4.66529 3.5364
thorax 0.154335 -2.42426 7.03348
lowerneck -12.2857 4.92841 4.07538
upperneck 15.5815 7.51579 -8.76282
head 7.29837 3.08782 -2.75987
rclavicle 1.35671e-014 -2.72335e-014
rhumerus -43.1725 -17.0891 -62.7374
rradius 34.7244
rwrist 3.11413
rhand -16.1902 36.0927
rfingers 7.12502
rthumb 10.0167 6.35101
lclavicle 1.35671e-014 -2.72335e-014
lhumerus -17.5874 7.46821 85.8058
lradius 24.7931
lwrist -1.63379
lhand -31.0711 20.4977
lfingers 7.12502
lthumb -4.35179 50.433
rfemur -38.5542 -13.2419 28.7419
rtibia 52.8556
rfoot 5.10442 31.1996
rtoes 29.477
lfemur -4.20209 13.2768 -35.3737
ltibia 38.3358
lfoot -6.23848 2.93167
ltoes -10.8283
182
root -11.9536 17.2189 -7.26906 3.94651 11.9945 -4.88294
lowerback 6.42746 -3.35473 -6.18971
upperback 2.51263 -4.7916 3.53607
thorax -0.164649 -2.48233 7.45774
lowerneck -12.1675 4.76079 3.78818
upperneck 14.9614 7.18584 -8.18279
head 7.02036 2.98144 -2.5608
rclavicle -3.10104e-014 -1.98785e-014
rhumerus -43.3371 -17.5043 -62.7853
rradius 33.9684
rwrist 3.87834
rhand -15.738 36.5405
rfingers 7.12502
rthumb 10.4529 6.82035
lclavicle -3.10104e-014 -1.98785e-014
lhumerus -17.0399 6.8846 85.8191
lradius 24.9151
lwrist -1.17663
lhand -30.4366 20.4875
lfingers 7.12502
lthumb -3.73905 50.4344
rfemur -40.2021 -14.464 29.5436
rtibia 54.4561
rfoot 4.67465 29.9749
rtoes 25.5009
lfemur -4.1091 11.8378 -35.6505
ltibia 37.8378
lfoot -8.59165 2.73601
ltoes -8.02834
183
root -12.1102 17.1752 -7.36958 3.85625 12.6863 -4.42579
lowerback 7.34516 -3.29659 -7.09065
upperback 2.70513 -4.82095 3.35007
thorax -0.40394 -2.4986 7.83803
lowerneck -12.2384 4.60231 3.74006
upperneck 14.2442 6.8404 -7.7224
head 6.76064 2.86616 -2.43867
rclavicle -2.67365e-014 4.13472e-014
rhumerus -43.5335 -17.8462 -63.1643
rradius 33.603
rwrist 4.33165
rhand -15.6324 36.7279
rfingers 7.12502
rthumb 10.5548 7.0129
lclavicle -2.67365e-014 4.13472e-014
lhumerus -16.7764 6.50799 85.7057
lradius 25.9825
lwrist -1.19703
lhand -29.4594 20.7838
lfingers 7.12502
lthumb -2.79533 50.7452
rfemur -41.6321 -15.4924 29.8493
rtibia 55.9886
rfoot 3.61572 28.3809
rtoes 18.7258
lfemur -3.67091 10.8511 -36.0618
ltibia 37.0732
lfoot -10.2212 2.71103
ltoes -11.6974
184
root -12.2583 17.1645 -7.46144 3.68623 13.2887 -4.1414
lowerback 8.20534 -3.20612 -7.78665
upperback 2.97397 -4.80213 3.21907
thorax -0.55078 -2.49569 8.15055
lowerneck -12.5308 4.44709 3.55459
upperneck 13.6659 6.53434 -7.23831
head 6.58408 2.75412 -2.27916
rclavicle 7.83212e-014 -3.97569e-014
rhumerus -43.6101 -18.1264 -63.5975
rradius 33.2842
rwrist 4.86199
rhand -15.4398 36.8808
rfingers 7.12502
rthumb 10.7405 7.17537
lclavicle 7.83212e-014 -3.97569e-014
lhumerus -15.9089 6.0816 85.6933
lradius 26.1792
lwrist -1.39663
lhand -28.5294 21.8414
lfingers 7.12502
lthumb -1.8972 51.8127
rfemur -42.8191 -16.2645 30.1404
rtibia 57.3399
rfoot 2.15998 26.7312
rtoes 8.90953
lfemur -3.00079 10.216 -36.1294
ltibia 35.9372
lfoot -11.148 2.9848
ltoes -14.8269
185
root -12.3895 17.189 -7.54369 3.5765 13.6802 -3.62253
lowerback 8.97683 -3.07545 -8.58265
upperback 3.25764 -4.74434 2.99856
thorax -0.637773 -2.47673 8.41394
lowerneck -12.727 4.28644 3.3295
upperneck 13.0336 6.25551 -6.89326
head 6.38155 2.64444 -2.15772
rclavicle 3.97569e-015 -1.98785e-015
rhumerus -43.5103 -18.9674 -63.7132
rradius 32.5982
rwrist 6.26489
rhand -14.8368 36.6383
rfingers 7.12502
rthumb 11.3221 6.96396
lclavicle 3.97569e-015 -1.98785e-015
lhumerus -14.8026 4.8212 85.677
lradius 25.9253
lwrist -0.890564
lhand -28.2078 22.2657
lfingers 7.12502
lthumb -1.58658 52.2395
rfemur -43.7371 -16.8725 29.9414
rtibia 58.4747
rfoot 1.05308 25.1921
rtoes 0.185882
lfemur -2.10538 9.81988 -36.2839
ltibia 34.3912
lfoot -11.7841 2.5184
ltoes -9.35626
186
root -12.5126 17.206 -7.62279 3.7006 13.9792 -2.56175
lowerback 9.54627 -2.91716 -9.70814
upperback 3.50891 -4.67818 2.57248
thorax -0.636581 -2.45824 8.62748
lowerneck -12.6424 4.08256 3.11325
upperneck 12.1877 5.91622 -6.56995
head 6.0637 2.51359 -2.05627
rclavicle -1.2921e-015 9.54166e-015
rhumerus -43.4325 -19.3238 -64.2253
rradius 32.1136
rwrist 7.36506
rhand -14.8845 36.4388
rfingers 7.12502
rthumb 11.2761 6.76186
lclavicle -1.2921e-015 9.54166e-015
lhumerus -14.2729 2.72274 85.5574
lradius 26.5355
lwrist 0.533177
lhand -27.9502 21.857
lfingers 7.12502
lthumb -1.33782 51.8325
rfemur -44.6083 -17.1258 28.9125
rtibia 59.5228
rfoot 0.421288 23.4003
rtoes -2.42124
lfemur -1.17564 9.67587 -36.947
ltibia 32.5955
lfoot -11.7038 1.56708
ltoes -1.87579
187
root -12.6313 17.2329 -7.69069 3.90294 14.2386 -1.60986
lowerback 9.87153 -2.80827 -10.6664
upperback 3.72249 -4.64981 2.12617
thorax -0.548003 -2.4615 8.70567
lowerneck -12.4429 3.84541 2.95023
upperneck 11.3629 5.52345 -6.1954
head 5.73405 2.363 -1.95381
rclavicle 4.6118e-014 -4.77083e-015
rhumerus -43.4966 -19.0628 -65.2139
rradius 32.0825
rwrist 7.90256
rhand -15.2385 36.752
rfingers 7.12502
rthumb 10.9347 7.05672
lclavicle 4.6118e-014 -4.77083e-015
lhumerus -13.9165 0.975054 85.2503
lradius 27.227
lwrist 1.48942
lhand -27.5826 21.7168
lfingers 7.12502
lthumb -0.982767 51.6943
rfemur -45.3719 -16.3105 27.5577
rtibia 60.935
rfoot -1.30053 21.0001
rtoes -3.18904
lfemur -0.858739 9.76232 -37.5047
ltibia 31.8713
lfoot -12.0843 0.864136
ltoes 0.163461
188
root -12.7446 17.2724 -7.75167 3.97663 14.3912 -0.98761
lowerback 10.1839 -2.70386 -11.2926
upperback 3.94901 -4.59675 1.77685
thorax -0.464421 -2.4515 8.6941
lowerneck -12.4093 3.59698 2.69714
upperneck 10.9224 5.15598 -5.8196
head 5.55553 2.20902 -1.82969
rclavicle 2.52457e-014 7.95139e-016
rhumerus -43.7786 -18.6878 -66.2005
rradius 32.6451
rwrist 8.12396
rhand -14.8647 37.258
rfingers 7.12502
rthumb 11.2952 7.58214
lclavicle 2.52457e-014 7.95139e-016
lhumerus -13.3849 0.370478 84.9425
lradius 27.4788
lwrist 1.20878
lhand -27.4855 21.623
lfingers 7.12502
lthumb -0.889016 51.6009
rfemur -46.1761 -17.5503 26.9007
rtibia 62.2921
rfoot -2.53016 20.7084
rtoes -5.73994
lfemur -0.80581 10.0491 -37.6663
ltibia 31.6319
lfoot -13.0315 -0.0711561
ltoes -2.20987
